<?xml version="1.0" standalone="no"?>
<!DOCTYPE svg PUBLIC "-//W3C//DTD SVG 20010904//EN"
 "http://www.w3.org/TR/2001/REC-SVG-20010904/DTD/svg10.dtd">
<svg version="1.0" xmlns="http://www.w3.org/2000/svg"
 width="3333.000000pt" height="3333.000000pt" viewBox="0 0 3333.000000 3333.000000"
 preserveAspectRatio="xMidYMid meet">
<metadata>
Created by potrace 1.11, written by Peter Selinger 2001-2013
</metadata>
<g transform="translate(0.000000,3333.000000) scale(0.100000,-0.100000)"
fill="#000000" stroke="none">
<path d="M16349 30935 c-2 -2 -40 -6 -84 -10 -44 -3 -87 -8 -95 -10 -8 -2 -35
-7 -60 -10 -25 -3 -52 -8 -60 -10 -8 -2 -32 -6 -54 -10 -21 -3 -41 -7 -45 -10
-4 -2 -18 -6 -32 -8 -38 -7 -109 -27 -174 -49 -33 -10 -67 -21 -76 -23 -53
-11 -332 -139 -439 -201 -94 -54 -315 -206 -340 -234 -3 -3 -39 -34 -80 -70
-233 -202 -435 -457 -587 -740 -70 -131 -170 -373 -188 -457 -3 -12 -10 -34
-15 -48 -13 -35 -57 -228 -66 -290 -3 -27 -8 -59 -10 -70 -18 -98 -25 -464
-12 -600 55 -561 279 -1072 652 -1489 89 -100 207 -213 296 -285 25 -20 47
-38 50 -41 16 -18 217 -153 285 -192 149 -85 363 -183 488 -222 16 -5 17 -93
17 -1656 l0 -1650 -4607 -1 c-2535 -1 -4626 -2 -4648 -4 -39 -2 -145 -13 -213
-21 -18 -2 -67 -11 -110 -20 -42 -9 -88 -18 -102 -21 -95 -17 -319 -88 -405
-127 -27 -13 -61 -27 -75 -31 -43 -13 -249 -123 -347 -185 -316 -199 -603
-479 -810 -790 -39 -58 -79 -121 -89 -140 -10 -19 -21 -37 -24 -40 -9 -8 -130
-256 -130 -266 -1 -5 -9 -27 -20 -49 -11 -22 -19 -46 -20 -53 0 -7 -4 -20 -10
-30 -27 -50 -76 -226 -115 -412 -3 -16 -11 -68 -20 -131 -3 -20 -9 -53 -12
-75 -4 -21 -8 -853 -10 -1848 -2 -996 -5 -1811 -7 -1813 -1 -2 -772 -3 -1713
-3 -1656 0 -1713 -1 -1786 -19 -177 -46 -312 -157 -390 -323 -61 -128 -57 142
-57 -3678 0 -3877 -6 -3551 67 -3699 50 -101 152 -203 254 -253 146 -72 17
-68 1913 -68 940 0 1711 -1 1712 -3 2 -2 5 -817 7 -1813 1 -995 6 -1825 10
-1844 4 -19 9 -55 12 -80 8 -74 34 -211 54 -290 101 -391 277 -735 546 -1066
35 -44 291 -302 327 -330 228 -179 370 -271 573 -369 106 -52 326 -139 376
-149 13 -3 54 -14 92 -25 37 -11 67 -18 67 -16 0 3 11 0 26 -5 14 -6 37 -12
52 -15 15 -2 50 -9 77 -14 28 -5 77 -13 110 -18 33 -4 4655 -8 10270 -8 8055
0 10223 3 10270 12 33 7 78 15 100 18 42 7 150 31 200 46 113 33 233 72 247
80 10 5 22 9 27 9 15 0 245 109 336 159 274 151 579 405 764 636 31 39 59 72
62 75 3 3 28 37 55 75 220 312 365 637 443 990 60 276 59 226 60 2159 1 979 3
1781 4 1783 2 2 836 3 1853 3 2027 0 1907 -3 2038 60 139 66 250 190 301 336
l25 69 0 3555 0 3555 -25 69 c-25 72 -75 155 -128 212 -48 53 -155 122 -237
152 l-75 27 -1874 3 c-1031 1 -1876 4 -1878 5 -1 2 -4 820 -6 1817 -1 998 -5
1824 -9 1835 -3 11 -9 47 -13 80 -30 256 -119 548 -247 812 -47 96 -173 314
-205 353 -6 8 -34 44 -60 80 -87 118 -142 180 -278 314 -391 386 -903 646
-1440 731 -22 3 -51 8 -65 11 -42 7 -121 14 -200 19 -41 2 -2139 4 -4663 5
l-4587 0 2 1651 3 1651 115 42 c63 24 124 48 135 54 11 6 67 34 124 62 139 68
311 179 446 287 121 97 318 290 386 380 24 32 52 67 62 78 18 20 34 44 133
195 47 73 161 291 198 380 44 108 121 360 140 460 29 152 33 179 43 280 10 96
10 446 0 525 -4 33 -10 78 -12 100 -3 22 -7 51 -10 65 -3 14 -8 41 -11 60 -23
131 -78 319 -134 460 -170 428 -429 783 -783 1071 -104 86 -278 209 -293 209
-4 0 -15 6 -23 14 -23 20 -212 116 -315 161 -87 37 -299 109 -347 119 -13 2
-62 13 -109 24 -47 11 -123 25 -170 32 -47 6 -98 14 -115 17 -35 6 -451 14
-456 8z m-4074 -12918 c11 -3 43 -8 70 -11 42 -6 122 -20 235 -42 169 -34 455
-138 629 -231 165 -87 354 -214 481 -321 67 -57 265 -253 310 -307 171 -205
337 -473 420 -680 4 -11 15 -36 23 -55 38 -89 113 -336 132 -435 40 -218 50
-321 50 -545 0 -248 -16 -392 -67 -610 -11 -47 -21 -92 -23 -100 -10 -41 -71
-216 -107 -303 -88 -215 -257 -498 -388 -651 -187 -219 -381 -399 -540 -502
-25 -16 -47 -31 -50 -35 -12 -14 -185 -112 -285 -162 -233 -117 -532 -214
-750 -242 -27 -4 -53 -9 -56 -11 -16 -9 -205 -19 -369 -19 -277 1 -394 14
-640 75 -669 165 -1244 587 -1610 1179 -98 158 -193 362 -253 541 -51 152 -97
348 -111 470 -3 25 -8 72 -13 105 -18 142 -8 520 18 670 52 304 113 497 244
768 198 409 533 785 930 1044 85 54 370 212 370 203 0 -2 23 7 125 48 76 30
88 34 216 71 91 26 243 60 297 66 23 3 53 7 67 10 14 2 54 7 90 11 36 3 67 7
68 9 6 5 464 -3 487 -8z m9360 0 c11 -3 43 -8 70 -11 96 -13 121 -18 228 -41
201 -45 379 -108 575 -202 93 -44 271 -147 322 -185 14 -10 57 -42 96 -71 163
-119 342 -291 484 -463 306 -372 523 -906 567 -1394 15 -162 8 -527 -12 -631
-3 -13 -7 -41 -10 -64 -4 -22 -10 -56 -15 -75 -5 -19 -11 -48 -13 -65 -23
-146 -132 -445 -234 -641 -71 -138 -215 -360 -278 -430 -5 -7 -26 -31 -45 -55
-67 -84 -276 -286 -380 -367 -58 -45 -109 -85 -115 -90 -5 -4 -59 -39 -120
-77 -170 -106 -368 -201 -565 -268 -88 -30 -288 -83 -345 -91 -22 -3 -51 -8
-65 -10 -130 -24 -219 -30 -425 -31 -236 0 -308 6 -515 46 -500 95 -968 342
-1333 702 -140 138 -206 214 -294 337 -166 231 -290 475 -377 742 -27 84 -75
271 -81 322 -3 27 -8 52 -10 55 -1 3 -6 30 -9 59 -3 28 -9 76 -13 105 -16 111
-8 517 12 627 2 14 7 43 10 65 5 42 11 71 20 115 3 14 7 34 9 45 61 296 229
674 420 940 136 190 337 403 508 538 298 236 554 364 993 497 54 16 299 58
380 65 44 4 82 9 83 10 6 5 454 -3 477 -8z m735 -8720 c14 -4 36 -9 50 -12 92
-17 233 -79 335 -148 78 -53 201 -176 254 -255 56 -83 114 -210 136 -296 9
-38 20 -79 23 -90 3 -12 7 -181 9 -376 2 -322 0 -363 -17 -442 -48 -211 -127
-356 -275 -504 -73 -72 -246 -194 -275 -194 -6 0 -25 -7 -43 -17 -18 -9 -72
-28 -122 -42 l-90 -26 -5660 -2 c-6057 -2 -5711 -5 -5860 43 -184 60 -363 186
-488 344 -42 53 -112 186 -141 268 -25 70 -29 84 -44 167 -9 53 -9 705 0 772
28 190 133 390 282 539 139 138 296 222 496 264 82 18 307 19 5745 17 3113 -1
5671 -5 5685 -10z"/>
</g>
</svg>
